<?xml version="1.0" encoding="UTF-8" standalone="no"?>
<!DOCTYPE svg PUBLIC "-//W3C//DTD SVG 1.1//EN" "http://www.w3.org/Graphics/SVG/1.1/DTD/svg11.dtd">
<svg xmlns:dc="http://purl.org/dc/elements/1.1/" xmlns="http://www.w3.org/2000/svg" xmlns:xl="http://www.w3.org/1999/xlink" version="1.1" viewBox="375 450 336 246" width="336" height="246">
  <defs/>
  <g id="LAB_1__" fill="none" stroke="none" stroke-dasharray="none" stroke-opacity="1" fill-opacity="1">
    <title>LAB 1 细化</title>
    <rect fill="white" x="375" y="450" width="336" height="246"/>
    <g id="LAB_1___图层_1">
      <title>图层 1</title>
      <g id="Graphic_4">
        <rect x="376.5" y="451.5" width="333.5" height="140.5" stroke="black" stroke-linecap="round" stroke-linejoin="round" stroke-width="2"/>
        <text transform="translate(381.5 456.5)" fill="black">
          <tspan font-family="PingFang SC" font-size="15" fill="black" x="131.75" y="16">页面管理</tspan>
        </text>
      </g>
      <g id="Graphic_8">
        <rect x="389.5" y="482.5" width="97" height="97.5" stroke="black" stroke-linecap="round" stroke-linejoin="round" stroke-width="2"/>
        <text transform="translate(394.5 487.5)" fill="black">
          <tspan font-family="PingFang SC" font-size="15" fill="black" x="6" y="16">数据表管理</tspan>
        </text>
      </g>
      <g id="Graphic_10">
        <path d="M 400.5 512.5 L 475.5 512.5 C 477.70914 512.5 479.5 514.29086 479.5 516.5 L 479.5 535 C 479.5 537.20914 477.70914 539 475.5 539 L 400.5 539 C 398.29086 539 396.5 537.20914 396.5 535 L 396.5 516.5 C 396.5 514.29086 398.29086 512.5 400.5 512.5 Z" stroke="black" stroke-linecap="round" stroke-linejoin="round" stroke-width="4"/>
        <text transform="translate(401.5 515.25)" fill="black">
          <tspan font-family="PingFang SC" font-size="15" fill="black" x="6.5" y="16">页面组织</tspan>
        </text>
      </g>
      <g id="Graphic_12">
        <path d="M 400.5 545.5 L 475.5 545.5 C 477.70914 545.5 479.5 547.29086 479.5 549.5 L 479.5 568 C 479.5 570.20914 477.70914 572 475.5 572 L 400.5 572 C 398.29086 572 396.5 570.20914 396.5 568 L 396.5 549.5 C 396.5 547.29086 398.29086 545.5 400.5 545.5 Z" stroke="black" stroke-linecap="round" stroke-linejoin="round" stroke-width="4"/>
        <text transform="translate(401.5 548.25)" fill="black">
          <tspan font-family="PingFang SC" font-size="15" fill="black" x="6.5" y="16">页面操作</tspan>
        </text>
      </g>
      <g id="Graphic_13">
        <rect x="492" y="482.5" width="209" height="97.5" stroke="black" stroke-linecap="round" stroke-linejoin="round" stroke-width="2"/>
        <text transform="translate(497 487.5)" fill="black">
          <tspan font-family="PingFang SC" font-size="15" fill="black" x="54.5" y="16">页面缓存管理</tspan>
        </text>
      </g>
      <g id="Graphic_14">
        <path d="M 507 515.5 L 546.5 515.5 C 548.70914 515.5 550.5 517.29086 550.5 519.5 L 550.5 569 C 550.5 571.20914 548.70914 573 546.5 573 L 507 573 C 504.79086 573 503 571.20914 503 569 L 503 519.5 C 503 517.29086 504.79086 515.5 507 515.5 Z" stroke="black" stroke-linecap="round" stroke-linejoin="round" stroke-width="4"/>
        <text transform="translate(508 523.25)" fill="black">
          <tspan font-family="PingFang SC" font-size="15" fill="black" x="3.75" y="16">缓存</tspan>
          <tspan font-family="PingFang SC" font-size="15" fill="black" x="3.75" y="37">替换</tspan>
        </text>
      </g>
      <g id="Graphic_15">
        <path d="M 561.5 515.5 L 686.5 515.5 C 688.7091 515.5 690.5 517.29086 690.5 519.5 L 690.5 569 C 690.5 571.20914 688.7091 573 686.5 573 L 561.5 573 C 559.29086 573 557.5 571.20914 557.5 569 L 557.5 519.5 C 557.5 517.29086 559.29086 515.5 561.5 515.5 Z" stroke="black" stroke-linecap="round" stroke-linejoin="round" stroke-width="2"/>
        <text transform="translate(562.5 520.5)" fill="black">
          <tspan font-family="PingFang SC" font-size="15" fill="black" x="24" y="16">页面缓存池</tspan>
        </text>
      </g>
      <g id="Graphic_19">
        <path d="M 511.5 685.65 L 511.5 610.85 C 511.5 605.6888 554.844 601.5 608.25 601.5 C 661.656 601.5 705 605.6888 705 610.85 L 705 685.65 C 705 690.8112 661.656 695 608.25 695 C 554.844 695 511.5 690.8112 511.5 685.65 M 511.5 610.85 C 511.5 616.0112 554.844 620.2 608.25 620.2 C 661.656 620.2 705 616.0112 705 610.85" stroke="black" stroke-linecap="round" stroke-linejoin="round" stroke-width="2"/>
      </g>
      <g id="Graphic_22">
        <text transform="translate(523 631)" fill="black">
          <tspan font-family="PingFang SC" font-size="15" fill="black" x="0" y="16">页面</tspan>
          <tspan font-family="PingFang SC" font-size="15" fill="black" x="0" y="37">存储</tspan>
        </text>
      </g>
      <g id="Graphic_23">
        <path d="M 590 635.1729 C 590 632.2363 589.6825 631.87295 587.36325 628.9667 L 587.33875 628.9366 C 585.00725 626 584.983 626 582.59025 626 C 579.40425 626 565 626 565 626 L 565 657 L 590 657 L 590 635.1729 Z" fill="white"/>
        <path d="M 590 635.1729 C 590 632.2363 589.6825 631.87295 587.36325 628.9667 L 587.33875 628.9366 C 585.00725 626 584.983 626 582.59025 626 C 579.40425 626 565 626 565 626 L 565 657 L 590 657 L 590 635.1729 Z M 590 635.0216 C 590 632.2363 589.9755 632.2363 584.983 632.2363 L 584.983 632.2363 C 584.983 626.0304 584.983 626 582.73675 626" stroke="black" stroke-linecap="round" stroke-linejoin="round" stroke-width="2"/>
      </g>
      <g id="Graphic_24">
        <path d="M 622 635.1729 C 622 632.2363 621.6825 631.87295 619.36325 628.9667 L 619.33875 628.9366 C 617.00725 626 616.983 626 614.59025 626 C 611.40425 626 597 626 597 626 L 597 657 L 622 657 L 622 635.1729 Z" fill="white"/>
        <path d="M 622 635.1729 C 622 632.2363 621.6825 631.87295 619.36325 628.9667 L 619.33875 628.9366 C 617.00725 626 616.983 626 614.59025 626 C 611.40425 626 597 626 597 626 L 597 657 L 622 657 L 622 635.1729 Z M 622 635.0216 C 622 632.2363 621.9755 632.2363 616.983 632.2363 L 616.983 632.2363 C 616.983 626.0304 616.983 626 614.73675 626" stroke="black" stroke-linecap="round" stroke-linejoin="round" stroke-width="2"/>
      </g>
      <g id="Graphic_26">
        <path d="M 654 635.1729 C 654 632.2363 653.6825 631.87295 651.36325 628.9667 L 651.33875 628.9366 C 649.00725 626 648.983 626 646.59025 626 C 643.40425 626 629 626 629 626 L 629 657 L 654 657 L 654 635.1729 Z" fill="white"/>
        <path d="M 654 635.1729 C 654 632.2363 653.6825 631.87295 651.36325 628.9667 L 651.33875 628.9366 C 649.00725 626 648.983 626 646.59025 626 C 643.40425 626 629 626 629 626 L 629 657 L 654 657 L 654 635.1729 Z M 654 635.0216 C 654 632.2363 653.9755 632.2363 648.983 632.2363 L 648.983 632.2363 C 648.983 626.0304 648.983 626 646.73675 626" stroke="black" stroke-linecap="round" stroke-linejoin="round" stroke-width="2"/>
      </g>
      <g id="Graphic_25">
        <path d="M 686 635.1729 C 686 632.2363 685.6825 631.87295 683.36325 628.9667 L 683.33875 628.9366 C 681.00725 626 680.983 626 678.59025 626 C 675.40425 626 661 626 661 626 L 661 657 L 686 657 L 686 635.1729 Z" fill="white"/>
        <path d="M 686 635.1729 C 686 632.2363 685.6825 631.87295 683.36325 628.9667 L 683.33875 628.9366 C 681.00725 626 680.983 626 678.59025 626 C 675.40425 626 661 626 661 626 L 661 657 L 686 657 L 686 635.1729 Z M 686 635.0216 C 686 632.2363 685.9755 632.2363 680.983 632.2363 L 680.983 632.2363 C 680.983 626.0304 680.983 626 678.73675 626" stroke="black" stroke-linecap="round" stroke-linejoin="round" stroke-width="2"/>
      </g>
      <g id="Graphic_27">
        <path d="M 609 549.84135 C 609 547.331 608.6825 547.0204 606.36325 544.53605 L 606.33875 544.51034 C 604.00725 542 603.983 542 601.59025 542 C 598.40425 542 584 542 584 542 L 584 568.5 L 609 568.5 L 609 549.84135 Z" fill="white"/>
        <path d="M 609 549.84135 C 609 547.331 608.6825 547.0204 606.36325 544.53605 L 606.33875 544.51034 C 604.00725 542 603.983 542 601.59025 542 C 598.40425 542 584 542 584 542 L 584 568.5 L 609 568.5 L 609 549.84135 Z M 609 549.712 C 609 547.331 608.9755 547.331 603.983 547.331 L 603.983 547.331 C 603.983 542.026 603.983 542 601.73675 542" stroke="black" stroke-linecap="round" stroke-linejoin="round" stroke-width="2"/>
      </g>
      <g id="Graphic_28">
        <path d="M 641 549.84135 C 641 547.331 640.6825 547.0204 638.36325 544.53605 L 638.33875 544.51034 C 636.00725 542 635.983 542 633.59025 542 C 630.40425 542 616 542 616 542 L 616 568.5 L 641 568.5 L 641 549.84135 Z" fill="white"/>
        <path d="M 641 549.84135 C 641 547.331 640.6825 547.0204 638.36325 544.53605 L 638.33875 544.51034 C 636.00725 542 635.983 542 633.59025 542 C 630.40425 542 616 542 616 542 L 616 568.5 L 641 568.5 L 641 549.84135 Z M 641 549.712 C 641 547.331 640.9755 547.331 635.983 547.331 L 635.983 547.331 C 635.983 542.026 635.983 542 633.73675 542" stroke="black" stroke-linecap="round" stroke-linejoin="round" stroke-width="2"/>
      </g>
      <g id="Graphic_29">
        <path d="M 673 549.84135 C 673 547.331 672.6825 547.0204 670.36325 544.53605 L 670.33875 544.51034 C 668.00725 542 667.983 542 665.59025 542 C 662.40425 542 648 542 648 542 L 648 568.5 L 673 568.5 L 673 549.84135 Z" fill="white"/>
        <path d="M 673 549.84135 C 673 547.331 672.6825 547.0204 670.36325 544.53605 L 670.33875 544.51034 C 668.00725 542 667.983 542 665.59025 542 C 662.40425 542 648 542 648 542 L 648 568.5 L 673 568.5 L 673 549.84135 Z M 673 549.712 C 673 547.331 672.9755 547.331 667.983 547.331 L 667.983 547.331 C 667.983 542.026 667.983 542 665.73675 542" stroke="black" stroke-linecap="round" stroke-linejoin="round" stroke-width="2"/>
      </g>
      <g id="Graphic_34">
        <path d="M 590 666.1729 C 590 663.2363 589.6825 662.87295 587.36325 659.9667 L 587.33875 659.9366 C 585.00725 657 584.983 657 582.59025 657 C 579.40425 657 565 657 565 657 L 565 688 L 590 688 L 590 666.1729 Z" fill="white"/>
        <path d="M 590 666.1729 C 590 663.2363 589.6825 662.87295 587.36325 659.9667 L 587.33875 659.9366 C 585.00725 657 584.983 657 582.59025 657 C 579.40425 657 565 657 565 657 L 565 688 L 590 688 L 590 666.1729 Z M 590 666.0216 C 590 663.2363 589.9755 663.2363 584.983 663.2363 L 584.983 663.2363 C 584.983 657.0304 584.983 657 582.73675 657" stroke="black" stroke-linecap="round" stroke-linejoin="round" stroke-width="2"/>
      </g>
      <g id="Graphic_33">
        <path d="M 622 666.1729 C 622 663.2363 621.6825 662.87295 619.36325 659.9667 L 619.33875 659.9366 C 617.00725 657 616.983 657 614.59025 657 C 611.40425 657 597 657 597 657 L 597 688 L 622 688 L 622 666.1729 Z" fill="white"/>
        <path d="M 622 666.1729 C 622 663.2363 621.6825 662.87295 619.36325 659.9667 L 619.33875 659.9366 C 617.00725 657 616.983 657 614.59025 657 C 611.40425 657 597 657 597 657 L 597 688 L 622 688 L 622 666.1729 Z M 622 666.0216 C 622 663.2363 621.9755 663.2363 616.983 663.2363 L 616.983 663.2363 C 616.983 657.0304 616.983 657 614.73675 657" stroke="black" stroke-linecap="round" stroke-linejoin="round" stroke-width="2"/>
      </g>
      <g id="Graphic_32">
        <path d="M 654 666.1729 C 654 663.2363 653.6825 662.87295 651.36325 659.9667 L 651.33875 659.9366 C 649.00725 657 648.983 657 646.59025 657 C 643.40425 657 629 657 629 657 L 629 688 L 654 688 L 654 666.1729 Z" fill="white"/>
        <path d="M 654 666.1729 C 654 663.2363 653.6825 662.87295 651.36325 659.9667 L 651.33875 659.9366 C 649.00725 657 648.983 657 646.59025 657 C 643.40425 657 629 657 629 657 L 629 688 L 654 688 L 654 666.1729 Z M 654 666.0216 C 654 663.2363 653.9755 663.2363 648.983 663.2363 L 648.983 663.2363 C 648.983 657.0304 648.983 657 646.73675 657" stroke="black" stroke-linecap="round" stroke-linejoin="round" stroke-width="2"/>
      </g>
      <g id="Graphic_31">
        <path d="M 686 666.1729 C 686 663.2363 685.6825 662.87295 683.36325 659.9667 L 683.33875 659.9366 C 681.00725 657 680.983 657 678.59025 657 C 675.40425 657 661 657 661 657 L 661 688 L 686 688 L 686 666.1729 Z" fill="white"/>
        <path d="M 686 666.1729 C 686 663.2363 685.6825 662.87295 683.36325 659.9667 L 683.33875 659.9366 C 681.00725 657 680.983 657 678.59025 657 C 675.40425 657 661 657 661 657 L 661 688 L 686 688 L 686 666.1729 Z M 686 666.0216 C 686 663.2363 685.9755 663.2363 680.983 663.2363 L 680.983 663.2363 C 680.983 657.0304 680.983 657 678.73675 657" stroke="black" stroke-linecap="round" stroke-linejoin="round" stroke-width="2"/>
      </g>
      <g id="Graphic_35">
        <path d="M 628.5 580 L 634.75 590.7461 L 631.2617 590.7461 L 631.2617 602.427 L 634.75 602.427 L 628.5 613.1731 L 622.25 602.427 L 625.7383 602.427 L 625.7383 590.7461 L 622.25 590.7461 Z" fill="white"/>
        <path d="M 628.5 580 L 634.75 590.7461 L 631.2617 590.7461 L 631.2617 602.427 L 634.75 602.427 L 628.5 613.1731 L 622.25 602.427 L 625.7383 602.427 L 625.7383 590.7461 L 622.25 590.7461 Z" stroke="black" stroke-linecap="round" stroke-linejoin="round" stroke-width="2"/>
      </g>
    </g>
  </g>
</svg>
