<?xml version="1.0" encoding="UTF-8" standalone="no"?>
<!DOCTYPE svg PUBLIC "-//W3C//DTD SVG 1.1//EN" "http://www.w3.org/Graphics/SVG/1.1/DTD/svg11.dtd">
<svg xmlns:dc="http://purl.org/dc/elements/1.1/" xmlns="http://www.w3.org/2000/svg" xmlns:xl="http://www.w3.org/1999/xlink" version="1.1" viewBox="158 136 594 311" width="594" height="311">
  <defs/>
  <g id="版面_____LAB_5" fill="none" stroke="none" stroke-dasharray="none" stroke-opacity="1" fill-opacity="1">
    <title>层级对照 LAB 5</title>
    <rect fill="white" x="158" y="136" width="594" height="311"/>
    <g id="版面_____LAB_5_Layer_1">
      <title>Layer 1</title>
      <g id="Graphic_76">
        <path d="M 159 183.19531 L 415.5 183.19531 L 415.5 445.6953 L 159 445.6953 Z" stroke="black" stroke-linecap="round" stroke-linejoin="round" stroke-dasharray="2.0,8.0" stroke-width="2"/>
      </g>
      <g id="Graphic_9">
        <rect x="473.5" y="183.25" width="277" height="30.5" stroke="black" stroke-linecap="round" stroke-linejoin="round" stroke-width="2"/>
        <text transform="translate(478.5 188)" fill="black">
          <tspan font-family="PingFang SC" font-size="15" fill="black" x="73.5" y="16">前端交互：命令行</tspan>
        </text>
      </g>
      <g id="Graphic_12">
        <rect x="473.5" y="227.75" width="215.5" height="30.5" stroke="black" stroke-linecap="round" stroke-linejoin="round" stroke-width="2"/>
        <text transform="translate(478.5 232.5)" fill="black">
          <tspan font-family="PingFang SC" font-size="15" fill="black" x="80.25" y="16">解析器</tspan>
        </text>
      </g>
      <g id="Graphic_25">
        <path d="M 473.5 319.25 L 473.5 349.75 L 547 349.75 L 547 319.25 L 587.5 319.25 L 587.5 288.75 L 473.5 288.75 Z" stroke="black" stroke-linecap="round" stroke-linejoin="round" stroke-width="2"/>
        <text transform="translate(478.5 293.75)" fill="black">
          <tspan font-family="PingFang SC" font-size="15" fill="black" x="22" y="16">事务管理</tspan>
        </text>
      </g>
      <g id="Graphic_17">
        <rect x="587.5" y="288.75" width="101.5" height="30.5" stroke="black" stroke-linecap="round" stroke-linejoin="round" stroke-width="2"/>
        <text transform="translate(592.5 293.5)" fill="black">
          <tspan font-family="PingFang SC" font-size="15" fill="black" x="15.75" y="16">并发控制</tspan>
        </text>
      </g>
      <g id="Graphic_18">
        <rect x="547" y="319.25" width="203.5" height="30.5" stroke="black" stroke-linecap="round" stroke-linejoin="round" stroke-width="2"/>
        <text transform="translate(552 324)" fill="black">
          <tspan font-family="PingFang SC" font-size="15" fill="black" x="74.25" y="16">执行器</tspan>
        </text>
      </g>
      <g id="Graphic_21">
        <rect x="473.5" y="349.75" width="73.5" height="30.5" stroke="black" stroke-linecap="round" stroke-linejoin="round" stroke-width="2"/>
        <text transform="translate(478.5 354.75)" fill="black">
          <tspan font-family="PingFang SC" font-size="15" fill="black" x="1.75" y="16">日志管理</tspan>
        </text>
      </g>
      <g id="Graphic_22">
        <rect x="473.5" y="394.25" width="73.5" height="30.5" stroke="black" stroke-linecap="round" stroke-linejoin="round" stroke-width="2"/>
        <text transform="translate(478.5 399.25)" fill="black">
          <tspan font-family="PingFang SC" font-size="15" fill="black" x="1.75" y="16">日志存储</tspan>
        </text>
      </g>
      <g id="Graphic_23">
        <rect x="547" y="349.75" width="203.5" height="30.5" stroke="black" stroke-linecap="round" stroke-linejoin="round" stroke-width="2"/>
        <text transform="translate(552 354.5)" fill="black">
          <tspan font-family="PingFang SC" font-size="15" fill="black" x="66.75" y="16">页面管理</tspan>
        </text>
      </g>
      <g id="Graphic_24">
        <rect x="547" y="394.25" width="203.5" height="30.5" stroke="black" stroke-linecap="round" stroke-linejoin="round" stroke-width="2"/>
        <text transform="translate(552 399)" fill="black">
          <tspan font-family="PingFang SC" font-size="15" fill="black" x="66.75" y="16">页面存储</tspan>
        </text>
      </g>
      <g id="Graphic_13">
        <rect x="473.5" y="258.25" width="215.5" height="30.5" stroke="#ff2600" stroke-linecap="round" stroke-linejoin="round" stroke-width="2"/>
        <text transform="translate(478.5 263)" fill="#ff2600">
          <tspan font-family="PingFang SC" font-size="15" fill="#ff2600" x="80.25" y="16">优化器</tspan>
        </text>
      </g>
      <g id="Graphic_26">
        <rect x="689" y="227.75" width="61.5" height="91.5" stroke="#ff2600" stroke-linecap="round" stroke-linejoin="round" stroke-width="2"/>
        <text transform="translate(694 231.5)" fill="#ff2600">
          <tspan font-family="PingFang SC" font-size="15" fill="#ff2600" x="3.25" y="16">元数据</tspan>
          <tspan font-family="PingFang SC" font-size="15" fill="#ff2600" x="21.2125" y="37">+</tspan>
          <tspan font-family="PingFang SC" font-size="15" fill="#ff2600" x="10.75" y="58">统计</tspan>
          <tspan font-family="PingFang SC" font-size="15" fill="#ff2600" x="10.75" y="79">数据</tspan>
        </text>
      </g>
      <g id="Graphic_33">
        <path d="M 199 401.4172 L 199 321.8172 C 199 316.3248 238.536 311.8672 287.25 311.8672 C 335.964 311.8672 375.5 316.3248 375.5 321.8172 L 375.5 401.4172 C 375.5 406.9096 335.964 411.3672 287.25 411.3672 C 238.536 411.3672 199 406.9096 199 401.4172 M 199 321.8172 C 199 327.3096 238.536 331.7672 287.25 331.7672 C 335.964 331.7672 375.5 327.3096 375.5 321.8172" stroke="black" stroke-linecap="round" stroke-linejoin="round" stroke-width="2"/>
      </g>
      <g id="Group_82">
        <g id="Graphic_36">
          <path d="M 305.125 368.0401 C 305.125 365.10346 304.8075 364.74014 302.48825 361.8339 L 302.46375 361.8038 C 300.13225 358.8672 300.108 358.8672 297.71525 358.8672 C 294.52925 358.8672 280.125 358.8672 280.125 358.8672 L 280.125 389.8672 L 305.125 389.8672 L 305.125 368.0401 Z" fill="white"/>
          <path d="M 305.125 368.0401 C 305.125 365.10346 304.8075 364.74014 302.48825 361.8339 L 302.46375 361.8038 C 300.13225 358.8672 300.108 358.8672 297.71525 358.8672 C 294.52925 358.8672 280.125 358.8672 280.125 358.8672 L 280.125 389.8672 L 305.125 389.8672 L 305.125 368.0401 Z M 305.125 367.8888 C 305.125 365.10346 305.1005 365.10346 300.108 365.10346 L 300.108 365.10346 C 300.108 358.89757 300.108 358.8672 297.86175 358.8672" stroke="black" stroke-linecap="round" stroke-linejoin="round" stroke-width="2"/>
        </g>
        <g id="Graphic_38">
          <path d="M 355.125 368.0401 C 355.125 365.10346 354.8075 364.74014 352.48825 361.8339 L 352.46375 361.8038 C 350.13225 358.8672 350.108 358.8672 347.71525 358.8672 C 344.52925 358.8672 330.125 358.8672 330.125 358.8672 L 330.125 389.8672 L 355.125 389.8672 L 355.125 368.0401 Z" fill="white"/>
          <path d="M 355.125 368.0401 C 355.125 365.10346 354.8075 364.74014 352.48825 361.8339 L 352.46375 361.8038 C 350.13225 358.8672 350.108 358.8672 347.71525 358.8672 C 344.52925 358.8672 330.125 358.8672 330.125 358.8672 L 330.125 389.8672 L 355.125 389.8672 L 355.125 368.0401 Z M 355.125 367.8888 C 355.125 365.10346 355.1005 365.10346 350.108 365.10346 L 350.108 365.10346 C 350.108 358.89757 350.108 358.8672 347.86175 358.8672" stroke="black" stroke-linecap="round" stroke-linejoin="round" stroke-width="2"/>
        </g>
        <g id="Graphic_39">
          <path d="M 330.125 368.0401 C 330.125 365.10346 329.8075 364.74014 327.48825 361.8339 L 327.46375 361.8038 C 325.13225 358.8672 325.108 358.8672 322.71525 358.8672 C 319.52925 358.8672 305.125 358.8672 305.125 358.8672 L 305.125 389.8672 L 330.125 389.8672 L 330.125 368.0401 Z" fill="white"/>
          <path d="M 330.125 368.0401 C 330.125 365.10346 329.8075 364.74014 327.48825 361.8339 L 327.46375 361.8038 C 325.13225 358.8672 325.108 358.8672 322.71525 358.8672 C 319.52925 358.8672 305.125 358.8672 305.125 358.8672 L 305.125 389.8672 L 330.125 389.8672 L 330.125 368.0401 Z M 330.125 367.8888 C 330.125 365.10346 330.1005 365.10346 325.108 365.10346 L 325.108 365.10346 C 325.108 358.89757 325.108 358.8672 322.86175 358.8672" stroke="black" stroke-linecap="round" stroke-linejoin="round" stroke-width="2"/>
        </g>
        <g id="Graphic_43">
          <path d="M 309.625 374.5401 C 309.625 371.60346 309.3075 371.24014 306.98825 368.3339 L 306.96375 368.3038 C 304.63225 365.3672 304.608 365.3672 302.21525 365.3672 C 299.02925 365.3672 284.625 365.3672 284.625 365.3672 L 284.625 396.3672 L 309.625 396.3672 L 309.625 374.5401 Z" fill="white"/>
          <path d="M 309.625 374.5401 C 309.625 371.60346 309.3075 371.24014 306.98825 368.3339 L 306.96375 368.3038 C 304.63225 365.3672 304.608 365.3672 302.21525 365.3672 C 299.02925 365.3672 284.625 365.3672 284.625 365.3672 L 284.625 396.3672 L 309.625 396.3672 L 309.625 374.5401 Z M 309.625 374.3888 C 309.625 371.60346 309.6005 371.60346 304.608 371.60346 L 304.608 371.60346 C 304.608 365.39757 304.608 365.3672 302.36175 365.3672" stroke="black" stroke-linecap="round" stroke-linejoin="round" stroke-width="2"/>
        </g>
        <g id="Graphic_42">
          <path d="M 359.625 374.5401 C 359.625 371.60346 359.3075 371.24014 356.98825 368.3339 L 356.96375 368.3038 C 354.63225 365.3672 354.608 365.3672 352.21525 365.3672 C 349.02925 365.3672 334.625 365.3672 334.625 365.3672 L 334.625 396.3672 L 359.625 396.3672 L 359.625 374.5401 Z" fill="white"/>
          <path d="M 359.625 374.5401 C 359.625 371.60346 359.3075 371.24014 356.98825 368.3339 L 356.96375 368.3038 C 354.63225 365.3672 354.608 365.3672 352.21525 365.3672 C 349.02925 365.3672 334.625 365.3672 334.625 365.3672 L 334.625 396.3672 L 359.625 396.3672 L 359.625 374.5401 Z M 359.625 374.3888 C 359.625 371.60346 359.6005 371.60346 354.608 371.60346 L 354.608 371.60346 C 354.608 365.39757 354.608 365.3672 352.36175 365.3672" stroke="black" stroke-linecap="round" stroke-linejoin="round" stroke-width="2"/>
        </g>
        <g id="Graphic_41">
          <path d="M 334.625 374.5401 C 334.625 371.60346 334.3075 371.24014 331.98825 368.3339 L 331.96375 368.3038 C 329.63225 365.3672 329.608 365.3672 327.21525 365.3672 C 324.02925 365.3672 309.625 365.3672 309.625 365.3672 L 309.625 396.3672 L 334.625 396.3672 L 334.625 374.5401 Z" fill="white"/>
          <path d="M 334.625 374.5401 C 334.625 371.60346 334.3075 371.24014 331.98825 368.3339 L 331.96375 368.3038 C 329.63225 365.3672 329.608 365.3672 327.21525 365.3672 C 324.02925 365.3672 309.625 365.3672 309.625 365.3672 L 309.625 396.3672 L 334.625 396.3672 L 334.625 374.5401 Z M 334.625 374.3888 C 334.625 371.60346 334.6005 371.60346 329.608 371.60346 L 329.608 371.60346 C 329.608 365.39757 329.608 365.3672 327.36175 365.3672" stroke="black" stroke-linecap="round" stroke-linejoin="round" stroke-width="2"/>
        </g>
        <g id="Graphic_46">
          <path d="M 315.125 380.0401 C 315.125 377.10346 314.8075 376.74014 312.48825 373.8339 L 312.46375 373.8038 C 310.13225 370.8672 310.108 370.8672 307.71525 370.8672 C 304.52925 370.8672 290.125 370.8672 290.125 370.8672 L 290.125 401.8672 L 315.125 401.8672 L 315.125 380.0401 Z" fill="white"/>
          <path d="M 315.125 380.0401 C 315.125 377.10346 314.8075 376.74014 312.48825 373.8339 L 312.46375 373.8038 C 310.13225 370.8672 310.108 370.8672 307.71525 370.8672 C 304.52925 370.8672 290.125 370.8672 290.125 370.8672 L 290.125 401.8672 L 315.125 401.8672 L 315.125 380.0401 Z M 315.125 379.8888 C 315.125 377.10346 315.1005 377.10346 310.108 377.10346 L 310.108 377.10346 C 310.108 370.89757 310.108 370.8672 307.86175 370.8672" stroke="black" stroke-linecap="round" stroke-linejoin="round" stroke-width="2"/>
        </g>
        <g id="Graphic_45">
          <path d="M 365.125 380.0401 C 365.125 377.10346 364.8075 376.74014 362.48825 373.8339 L 362.46375 373.8038 C 360.13225 370.8672 360.108 370.8672 357.71525 370.8672 C 354.52925 370.8672 340.125 370.8672 340.125 370.8672 L 340.125 401.8672 L 365.125 401.8672 L 365.125 380.0401 Z" fill="white"/>
          <path d="M 365.125 380.0401 C 365.125 377.10346 364.8075 376.74014 362.48825 373.8339 L 362.46375 373.8038 C 360.13225 370.8672 360.108 370.8672 357.71525 370.8672 C 354.52925 370.8672 340.125 370.8672 340.125 370.8672 L 340.125 401.8672 L 365.125 401.8672 L 365.125 380.0401 Z M 365.125 379.8888 C 365.125 377.10346 365.1005 377.10346 360.108 377.10346 L 360.108 377.10346 C 360.108 370.89757 360.108 370.8672 357.86175 370.8672" stroke="black" stroke-linecap="round" stroke-linejoin="round" stroke-width="2"/>
        </g>
        <g id="Graphic_44">
          <path d="M 340.125 380.0401 C 340.125 377.10346 339.8075 376.74014 337.48825 373.8339 L 337.46375 373.8038 C 335.13225 370.8672 335.108 370.8672 332.71525 370.8672 C 329.52925 370.8672 315.125 370.8672 315.125 370.8672 L 315.125 401.8672 L 340.125 401.8672 L 340.125 380.0401 Z" fill="white"/>
          <path d="M 340.125 380.0401 C 340.125 377.10346 339.8075 376.74014 337.48825 373.8339 L 337.46375 373.8038 C 335.13225 370.8672 335.108 370.8672 332.71525 370.8672 C 329.52925 370.8672 315.125 370.8672 315.125 370.8672 L 315.125 401.8672 L 340.125 401.8672 L 340.125 380.0401 Z M 340.125 379.8888 C 340.125 377.10346 340.1005 377.10346 335.108 377.10346 L 335.108 377.10346 C 335.108 370.89757 335.108 370.8672 332.86175 370.8672" stroke="black" stroke-linecap="round" stroke-linejoin="round" stroke-width="2"/>
        </g>
      </g>
      <g id="Group_81">
        <g id="Graphic_49">
          <rect x="218.75" y="358.8672" width="19" height="19" stroke="black" stroke-linecap="round" stroke-linejoin="round" stroke-width="2"/>
        </g>
        <g id="Graphic_50">
          <rect x="244.25" y="358.8672" width="19" height="19" stroke="black" stroke-linecap="round" stroke-linejoin="round" stroke-width="2"/>
        </g>
        <g id="Graphic_51">
          <rect x="218.75" y="382.8672" width="19" height="19" stroke="black" stroke-linecap="round" stroke-linejoin="round" stroke-width="2"/>
        </g>
        <g id="Graphic_52">
          <rect x="244.25" y="382.8672" width="19" height="19" stroke="black" stroke-linecap="round" stroke-linejoin="round" stroke-width="2"/>
        </g>
      </g>
      <g id="Graphic_53">
        <text transform="translate(226 333.3672)" fill="black">
          <tspan font-family="PingFang SC" font-size="15" fill="black" x="0" y="16">日志</tspan>
        </text>
      </g>
      <g id="Graphic_54">
        <text transform="translate(303.125 333.3672)" fill="black">
          <tspan font-family="PingFang SC" font-size="15" fill="black" x="0" y="16">页面</tspan>
        </text>
      </g>
      <g id="Graphic_55">
        <rect x="171.375" y="190.99219" width="223.25" height="100.84375" stroke="black" stroke-linecap="round" stroke-linejoin="round" stroke-width="2"/>
      </g>
      <g id="Graphic_57">
        <rect x="183.25" y="215.21094" width="73.5" height="30.5" fill="white"/>
        <rect x="183.25" y="215.21094" width="73.5" height="30.5" stroke="black" stroke-linecap="round" stroke-linejoin="round" stroke-width="2"/>
        <text transform="translate(188.25 219.96094)" fill="black">
          <tspan font-family="PingFang SC" font-size="15" fill="black" x="1.75" y="16">缓存管理</tspan>
        </text>
      </g>
      <g id="Graphic_58">
        <rect x="183.25" y="254.33594" width="73.5" height="30.5" fill="white"/>
        <rect x="183.25" y="254.33594" width="73.5" height="30.5" stroke="black" stroke-linecap="round" stroke-linejoin="round" stroke-width="2"/>
        <text transform="translate(188.25 259.08594)" fill="black">
          <tspan font-family="PingFang SC" font-size="15" fill="black" x="1.75" y="16">并发控制</tspan>
        </text>
      </g>
      <g id="Graphic_59">
        <rect x="306.75" y="254.33594" width="73.5" height="30.5" fill="white"/>
        <rect x="306.75" y="254.33594" width="73.5" height="30.5" stroke="#ff2600" stroke-linecap="round" stroke-linejoin="round" stroke-width="2"/>
        <text transform="translate(311.75 259.08594)" fill="#ff2600">
          <tspan font-family="PingFang SC" font-size="15" fill="#ff2600" x="1.75" y="16">查询优化</tspan>
        </text>
      </g>
      <g id="Graphic_60">
        <rect x="306.75" y="215.21094" width="73.5" height="30.5" fill="white"/>
        <rect x="306.75" y="215.21094" width="73.5" height="30.5" stroke="black" stroke-linecap="round" stroke-linejoin="round" stroke-width="2"/>
        <text transform="translate(311.75 219.96094)" fill="black">
          <tspan font-family="PingFang SC" font-size="15" fill="black" x="1.75" y="16">故障恢复</tspan>
        </text>
      </g>
      <g id="Graphic_61">
        <text transform="translate(260 312.2422)" fill="black">
          <tspan font-family="PingFang SC" font-size="15" fill="black" x="0" y="16">存储层</tspan>
        </text>
      </g>
      <g id="Graphic_62">
        <text transform="translate(261 195.99219)" fill="black">
          <tspan font-family="PingFang SC" font-size="15" fill="black" x="0" y="16">计算层</tspan>
        </text>
      </g>
      <g id="Graphic_63">
        <path d="M 214.75 137.80469 L 350.25 137.80469 C 352.45914 137.80469 354.25 139.59555 354.25 141.80469 L 354.25 164.30469 C 354.25 166.51383 352.45914 168.30469 350.25 168.30469 L 214.75 168.30469 C 212.54086 168.30469 210.75 166.51383 210.75 164.30469 L 210.75 141.80469 C 210.75 139.59555 212.54086 137.80469 214.75 137.80469 Z" stroke="black" stroke-linecap="round" stroke-linejoin="round" stroke-width="2"/>
        <text transform="translate(215.75 142.55469)" fill="black">
          <tspan font-family="PingFang SC" font-size="15" fill="black" x="36.75" y="16">前端交互</tspan>
        </text>
      </g>
      <g id="Graphic_64">
        <rect x="246.75" y="237.39844" width="73.5" height="30.5" fill="white"/>
        <rect x="246.75" y="237.39844" width="73.5" height="30.5" stroke="black" stroke-linecap="round" stroke-linejoin="round" stroke-width="2"/>
        <text transform="translate(251.75 242.14844)" fill="black">
          <tspan font-family="PingFang SC" font-size="15" fill="black" x="1.75" y="16">查询处理</tspan>
        </text>
      </g>
      <g id="Graphic_68">
        <path d="M 287.875 283.3047 L 302 294.3047 L 294.9375 294.3047 L 294.9375 302.0547 L 302 302.0547 L 287.875 313.0547 L 273.75 302.0547 L 280.8125 302.0547 L 280.8125 294.3047 L 273.75 294.3047 Z" fill="white"/>
        <path d="M 287.875 283.3047 L 302 294.3047 L 294.9375 294.3047 L 294.9375 302.0547 L 302 302.0547 L 287.875 313.0547 L 273.75 302.0547 L 280.8125 302.0547 L 280.8125 294.3047 L 273.75 294.3047 Z" stroke="black" stroke-linecap="round" stroke-linejoin="round" stroke-width="2"/>
      </g>
      <g id="Graphic_70">
        <path d="M 287.25 168.30469 L 301.375 179.30469 L 294.3125 179.30469 L 294.3125 187.05469 L 301.375 187.05469 L 287.25 198.05469 L 273.125 187.05469 L 280.1875 187.05469 L 280.1875 179.30469 L 273.125 179.30469 Z" fill="white"/>
        <path d="M 287.25 168.30469 L 301.375 179.30469 L 294.3125 179.30469 L 294.3125 187.05469 L 301.375 187.05469 L 287.25 198.05469 L 273.125 187.05469 L 280.1875 187.05469 L 280.1875 179.30469 L 273.125 179.30469 Z" stroke="black" stroke-linecap="round" stroke-linejoin="round" stroke-width="2"/>
      </g>
      <g id="Graphic_78">
        <text transform="translate(246 415.58594)" fill="black">
          <tspan font-family="PingFang SC" font-size="15" fill="black" x="0" y="16">数据库系统</tspan>
        </text>
      </g>
    </g>
  </g>
</svg>
